<svg width="128" height="128" viewBox="0 0 128 128" fill="none" xmlns="http://www.w3.org/2000/svg">
<path fill-rule="evenodd" clip-rule="evenodd" d="M49.9043 8.5634C50.7619 4.17032 54.6112 1 59.0877 1H68.2454C72.7523 1 76.6188 4.21255 77.444 8.64279L78.6609 15.1767C78.7372 15.5863 79.0361 15.9181 79.4334 16.0434C86.6678 18.326 93.1799 22.1111 98.5594 27.0091C98.8622 27.2848 99.29 27.3786 99.6782 27.2481L106.975 24.7948C111.298 23.3412 116.153 25.0965 118.504 28.9634L122.668 35.8117C125.034 39.7029 124.181 44.6053 120.647 47.4237L113.921 52.7882C113.598 53.0458 113.446 53.4608 113.517 53.8677C113.97 56.4589 114.206 59.12 114.206 61.8333C114.206 65.6216 113.746 69.3079 112.877 72.8447C112.772 73.2696 112.918 73.7183 113.258 73.9939L120.538 79.8982C124.025 82.7266 124.852 87.5965 122.5 91.4634L118.336 98.3117C115.971 102.203 111.073 103.953 106.735 102.456L96.6531 98.977C96.2924 98.8525 95.8936 98.922 95.5925 99.1565C90.9518 102.77 85.6252 105.618 79.8262 107.498C79.4363 107.624 79.1428 107.95 79.0642 108.352L77.0956 118.437C76.238 122.83 72.3887 126 67.9122 126H58.7545C54.2476 126 50.3811 122.787 49.5559 118.357L47.6911 108.345C47.6155 107.939 47.321 107.609 46.9283 107.481C41.0844 105.58 35.7212 102.696 31.0578 99.0356C30.7589 98.801 30.3624 98.7295 30.0022 98.8506L20.0254 102.205C15.702 103.659 10.8473 101.903 8.49614 98.0365L4.33221 91.1881C1.96627 87.2969 2.81944 82.3946 6.35307 79.5761L13.5082 73.8692C13.8519 73.595 14.001 73.1446 13.8972 72.7173C13.0478 69.2195 12.5989 65.5762 12.5989 61.8333C12.5989 58.9775 12.8602 56.1797 13.3614 53.4602C13.4363 53.0536 13.287 52.6369 12.9659 52.3764L6.46222 47.1017C2.97476 44.2733 2.1483 39.4034 4.4995 35.5365L8.66344 28.6881C11.0294 24.7969 15.9271 23.0474 20.2644 24.544L27.3875 27.0018C27.7749 27.1355 28.2038 27.0449 28.5089 26.7711C33.9588 21.8791 40.5487 18.1203 47.8605 15.8918C48.2595 15.7702 48.5618 15.4407 48.6417 15.0314L49.9043 8.5634ZM42.7069 64.6724C42.6171 64.5247 42.5239 64.3803 42.4274 64.2392C42.1204 63.7903 42.1227 63.1897 42.4331 62.7432C42.5444 62.583 42.6514 62.4186 42.7541 62.2498L52.0341 46.9872C52.1319 46.8263 52.2242 46.664 52.3109 46.5005C52.5481 46.0533 53.0276 45.7797 53.5333 45.8039C53.6852 45.8111 53.8381 45.8148 53.992 45.8148H73.1073C73.2343 45.8148 73.3606 45.8123 73.4862 45.8074C73.9918 45.7874 74.4687 46.0648 74.7023 46.5135C74.7988 46.6989 74.9024 46.8828 75.0131 47.0649L84.2931 62.3275C84.3829 62.4752 84.4761 62.6196 84.5726 62.7606C84.8796 63.2095 84.8773 63.8101 84.5669 64.2567C84.4556 64.4168 84.3485 64.5813 84.2458 64.7501L74.9658 80.0127C74.868 80.1737 74.7757 80.336 74.689 80.4995C74.4518 80.9467 73.9723 81.2203 73.4666 81.1961C73.3147 81.1889 73.1618 81.1852 73.0078 81.1852H53.8926C53.7657 81.1852 53.6394 81.1877 53.5139 81.1926C53.0083 81.2126 52.5314 80.9352 52.2977 80.4864C52.2012 80.301 52.0976 80.1171 51.9869 79.935L42.7069 64.6724Z" fill="white"/>
</svg>
