<svg width="98" height="128" viewBox="0 0 98 128" fill="none" xmlns="http://www.w3.org/2000/svg">
<path fill-rule="evenodd" clip-rule="evenodd" d="M13.5873 6.80462C9.94923 6.80462 7 9.75385 7 13.3919C7 17.03 9.94923 19.9792 13.5873 19.9792H83.3324C87.0148 19.9792 90 16.994 90 13.3116C90 9.69251 87.113 6.7342 83.495 6.64596L64.2768 6.17722C63.4246 6.15644 62.5797 6.01469 61.7674 5.75623L51.2937 2.42367C49.4782 1.84601 47.5262 1.85938 45.7188 2.46185L34.076 6.34277C33.1583 6.64867 32.1973 6.80462 31.23 6.80462H13.5873ZM90 23.9316H7V108.843C7 111.491 7 112.815 7.1667 113.924C8.14576 120.436 13.2578 125.548 19.7699 126.527C20.8787 126.693 22.2025 126.693 24.85 126.693H72.15C74.7975 126.693 76.1213 126.693 77.2301 126.527C83.7422 125.548 88.8542 120.436 89.8333 113.924C90 112.815 90 111.491 90 108.843V23.9316Z" fill="white"/>
</svg>
